<?xml version="1.0" encoding="utf-8"?>
<!-- Generator: Adobe Illustrator 21.0.2, SVG Export Plug-In . SVG Version: 6.00 Build 0)  -->
<svg version="1.1" id="Warstwa_1" xmlns="http://www.w3.org/2000/svg" xmlns:xlink="http://www.w3.org/1999/xlink" x="0px" y="0px"
	 viewBox="0 0 17 16" style="enable-background:new 0 0 17 16;" xml:space="preserve">
<style type="text/css">
	.st0{fill:#818181;}
</style>
<path class="st0" d="M8.5,3.6l0.9,2.7L9.6,7h0.7h2.8l-2.3,1.6L10.2,9l0.2,0.7l0.9,2.7L9,10.8l-0.6-0.4l-0.6,0.4l-2.3,1.6l0.9-2.7
	L6.6,9L6.1,8.6L3.9,7h2.8h0.7l0.2-0.7L8.5,3.6z M8.5,0.4L6.7,6H0.8l4.8,3.5L3.7,15l4.8-3.5l4.8,3.5l-1.8-5.6L16.2,6h-5.9L8.5,0.4z"
	/>
</svg>
